<?xml version="1.0" standalone="no"?>
<!DOCTYPE svg PUBLIC "-//W3C//DTD SVG 20010904//EN"
 "http://www.w3.org/TR/2001/REC-SVG-20010904/DTD/svg10.dtd">
<svg version="1.0" xmlns="http://www.w3.org/2000/svg"
 width="700.000000pt" height="700.000000pt" viewBox="0 0 700.000000 700.000000"
 preserveAspectRatio="xMidYMid meet">
<metadata>
Created by potrace 1.11, written by Peter Selinger 2001-2013
</metadata>
<g transform="translate(0.000000,700.000000) scale(0.100000,-0.100000)"
fill="#000000" stroke="none">
<path d="M0 3501 l0 -3500 898 3 c493 2 908 6 922 9 14 3 57 8 96 11 39 4 80
8 90 10 11 2 53 9 94 16 117 18 304 67 402 105 217 84 398 213 583 416 l50 55
0 -310 0 -311 578 -2 577 -3 0 840 0 839 55 92 c30 50 55 93 55 94 0 2 28 50
61 107 34 57 67 112 73 123 54 98 172 295 176 295 4 0 13 -28 22 -62 9 -35 37
-139 62 -233 26 -93 48 -177 51 -185 2 -8 15 -60 30 -115 15 -55 40 -147 56
-205 15 -58 48 -181 74 -275 56 -209 88 -328 125 -465 16 -58 42 -154 58 -215
16 -60 44 -164 61 -230 35 -128 73 -267 97 -352 l14 -52 625 0 c608 0 625 1
615 19 -18 33 -10 44 52 80 83 47 195 159 245 245 73 125 103 244 98 385 -4
109 -9 136 -45 229 -90 231 -290 397 -533 441 -42 8 -110 11 -172 8 l-103 -6
-21 57 c-11 31 -165 489 -341 1019 l-322 962 140 233 c127 210 403 668 443
735 9 15 116 193 238 395 121 202 221 370 221 373 0 2 -236 4 -524 4 l-523 0
-47 -83 c-26 -45 -51 -89 -56 -97 -23 -36 -160 -272 -160 -275 0 -1 -25 -44
-55 -94 -30 -51 -55 -94 -55 -97 0 -3 -12 -21 -26 -40 -15 -19 -24 -34 -20
-34 3 0 -9 -24 -28 -52 -27 -43 -113 -190 -236 -403 -17 -29 -249 -428 -286
-492 -11 -18 -57 -98 -104 -178 l-85 -147 -3 1906 -2 1906 -578 0 -578 0 0
-304 1 -303 -78 73 c-202 190 -461 332 -744 410 -29 8 -78 21 -109 29 -30 8
-105 24 -167 35 -146 25 -159 27 -247 36 -41 4 -88 9 -105 11 -16 3 -402 7
-857 10 l-828 5 0 -3501z m1675 2284 c22 -4 73 -15 113 -26 212 -56 347 -150
464 -322 39 -58 124 -223 147 -287 7 -19 17 -44 22 -55 77 -181 147 -533 174
-880 25 -313 25 -1046 1 -1300 -2 -22 -7 -80 -11 -129 -4 -50 -9 -99 -11 -109
-2 -11 -6 -47 -9 -81 -6 -74 -56 -360 -70 -406 -3 -10 -8 -27 -10 -37 -6 -26
-53 -181 -71 -233 -23 -64 -27 -75 -77 -180 -135 -284 -303 -433 -564 -499
-115 -30 -199 -38 -380 -39 l-163 -1 0 2301 0 2301 203 -6 c111 -3 220 -9 242
-12z"/>
</g>
</svg>
